<svg width="22" height="15" viewBox="0 0 22 15" fill="none" xmlns="http://www.w3.org/2000/svg">
<g clip-path="url(#clip0_6:2405)">
<path d="M9.66793 4.3418L14.6458 11.4456L17.7634 7.06079L18.8809 8.27937L19.7117 9.80081L17.5549 12.8198C16.9619 13.658 15.8738 14.1586 14.6449 14.1586C13.4284 14.1586 12.3497 13.6675 11.7522 12.8439L11.7342 12.8189L9.60552 9.81182L7.73688 7.0808L9.66801 4.3418H9.66793ZM5.79889 1.36776C6.89702 1.36776 7.86365 1.80236 8.3918 2.53164L8.40873 2.55549L9.66809 4.3418L7.73697 7.0808L5.79889 4.33134L3.84236 7.08811L3.0904 8.66409L1.91631 9.8019L0 7.05033L3.1888 2.55544C3.71297 1.81179 4.68874 1.36771 5.79881 1.36771L5.79889 1.36776Z" fill="white"/>
<path d="M17.5665 1.33626C16.9759 0.499595 15.8948 0 14.673 0C13.4504 0 12.3685 0.499595 11.7787 1.33724L5.7994 9.83133L3.8582 7.0673L1.91699 9.80233L3.18872 11.6071C3.71289 12.3508 4.68866 12.7949 5.79873 12.7949C6.90871 12.7949 7.8844 12.3508 8.40857 11.6071L14.673 2.70798L19.7093 9.81279L21.678 7.05027L17.5665 1.33626Z" fill="#59F569"/>
</g>
<defs>
<clipPath id="clip0_6:2405">
<rect width="21.6781" height="14.2029" fill="white"/>
</clipPath>
</defs>
</svg>
