<svg width="56" height="56" viewBox="0 0 56 56" fill="none" xmlns="http://www.w3.org/2000/svg">
<path fill-rule="evenodd" clip-rule="evenodd" d="M40.8332 46.6667C42.3803 46.6667 43.864 46.0521 44.958 44.9581C46.0519 43.8642 46.6665 42.3804 46.6665 40.8333C46.6665 39.2862 46.0519 37.8025 44.958 36.7085C43.864 35.6146 42.3803 35 40.8332 35C39.2861 35 37.8023 35.6146 36.7084 36.7085C35.6144 37.8025 34.9998 39.2862 34.9998 40.8333C34.9998 42.3804 35.6144 43.8642 36.7084 44.9581C37.8023 46.0521 39.2861 46.6667 40.8332 46.6667ZM40.8332 49C42.9991 49 45.0763 48.1396 46.6079 46.608C48.1394 45.0765 48.9998 42.9993 48.9998 40.8333C48.9998 38.6674 48.1394 36.5902 46.6079 35.0586C45.0763 33.5271 42.9991 32.6667 40.8332 32.6667C38.6672 32.6667 36.59 33.5271 35.0585 35.0586C33.5269 36.5902 32.6665 38.6674 32.6665 40.8333C32.6665 42.9993 33.5269 45.0765 35.0585 46.608C36.59 48.1396 38.6672 49 40.8332 49Z" fill="#F8F8F8"/>
<path fill-rule="evenodd" clip-rule="evenodd" d="M40.8332 36.75C41.1426 36.75 41.4393 36.8729 41.6581 37.0917C41.8769 37.3105 41.9998 37.6072 41.9998 37.9167V40.3503L42.8247 41.1752C43.0372 41.3952 43.1548 41.6899 43.1521 41.9958C43.1495 42.3017 43.0268 42.5943 42.8105 42.8106C42.5942 43.0269 42.3015 43.1496 41.9956 43.1523C41.6897 43.1549 41.395 43.0374 41.175 42.8248L39.6665 41.3163V37.9167C39.6665 37.6072 39.7894 37.3105 40.0082 37.0917C40.227 36.8729 40.5238 36.75 40.8332 36.75Z" fill="#F8F8F8"/>
<path fill-rule="evenodd" clip-rule="evenodd" d="M16.3332 26.8333H13.9998V29.1667H16.3332V26.8333ZM13.9998 24.5C13.381 24.5 12.7875 24.7458 12.3499 25.1834C11.9123 25.621 11.6665 26.2145 11.6665 26.8333V29.1667C11.6665 29.7855 11.9123 30.379 12.3499 30.8166C12.7875 31.2542 13.381 31.5 13.9998 31.5H16.3332C16.952 31.5 17.5455 31.2542 17.9831 30.8166C18.4207 30.379 18.6665 29.7855 18.6665 29.1667V26.8333C18.6665 26.2145 18.4207 25.621 17.9831 25.1834C17.5455 24.7458 16.952 24.5 16.3332 24.5H13.9998Z" fill="#F8F8F8"/>
<path fill-rule="evenodd" clip-rule="evenodd" d="M25.6667 26.8333H23.3333V29.1667H25.6667V26.8333ZM23.3333 24.5C22.7145 24.5 22.121 24.7458 21.6834 25.1834C21.2458 25.621 21 26.2145 21 26.8333V29.1667C21 29.7855 21.2458 30.379 21.6834 30.8166C22.121 31.2542 22.7145 31.5 23.3333 31.5H25.6667C26.2855 31.5 26.879 31.2542 27.3166 30.8166C27.7542 30.379 28 29.7855 28 29.1667V26.8333C28 26.2145 27.7542 25.621 27.3166 25.1834C26.879 24.7458 26.2855 24.5 25.6667 24.5H23.3333Z" fill="#F8F8F8"/>
<path fill-rule="evenodd" clip-rule="evenodd" d="M35.0002 26.8333H32.6668V29.1667H35.0002V26.8333ZM32.6668 24.5C32.048 24.5 31.4545 24.7458 31.0169 25.1834C30.5793 25.621 30.3335 26.2145 30.3335 26.8333V29.1667C30.3335 29.7855 30.5793 30.379 31.0169 30.8166C31.4545 31.2542 32.048 31.5 32.6668 31.5H35.0002C35.619 31.5 36.2125 31.2542 36.6501 30.8166C37.0877 30.379 37.3335 29.7855 37.3335 29.1667V26.8333C37.3335 26.2145 37.0877 25.621 36.6501 25.1834C36.2125 24.7458 35.619 24.5 35.0002 24.5H32.6668Z" fill="#F8F8F8"/>
<path fill-rule="evenodd" clip-rule="evenodd" d="M16.3332 36.1667H13.9998V38.5H16.3332V36.1667ZM13.9998 33.8333C13.381 33.8333 12.7875 34.0792 12.3499 34.5168C11.9123 34.9543 11.6665 35.5478 11.6665 36.1667V38.5C11.6665 39.1188 11.9123 39.7123 12.3499 40.1499C12.7875 40.5875 13.381 40.8333 13.9998 40.8333H16.3332C16.952 40.8333 17.5455 40.5875 17.9831 40.1499C18.4207 39.7123 18.6665 39.1188 18.6665 38.5V36.1667C18.6665 35.5478 18.4207 34.9543 17.9831 34.5168C17.5455 34.0792 16.952 33.8333 16.3332 33.8333H13.9998Z" fill="#F8F8F8"/>
<path fill-rule="evenodd" clip-rule="evenodd" d="M25.6667 36.1667H23.3333V38.5H25.6667V36.1667ZM23.3333 33.8333C22.7145 33.8333 22.121 34.0792 21.6834 34.5168C21.2458 34.9543 21 35.5478 21 36.1667V38.5C21 39.1188 21.2458 39.7123 21.6834 40.1499C22.121 40.5875 22.7145 40.8333 23.3333 40.8333H25.6667C26.2855 40.8333 26.879 40.5875 27.3166 40.1499C27.7542 39.7123 28 39.1188 28 38.5V36.1667C28 35.5478 27.7542 34.9543 27.3166 34.5168C26.879 34.0792 26.2855 33.8333 25.6667 33.8333H23.3333Z" fill="#F8F8F8"/>
<path fill-rule="evenodd" clip-rule="evenodd" d="M9.33333 14C9.33333 13.6906 9.45625 13.3938 9.67504 13.175C9.89383 12.9562 10.1906 12.8333 10.5 12.8333H16.3333V10.5H10.5C9.57174 10.5 8.6815 10.8687 8.02513 11.5251C7.36875 12.1815 7 13.0717 7 14V42C7 42.9283 7.36875 43.8185 8.02513 44.4749C8.6815 45.1312 9.57174 45.5 10.5 45.5H34.1308C33.6333 44.7874 33.2532 43.9996 33.005 43.1667H10.5C10.1906 43.1667 9.89383 43.0438 9.67504 42.825C9.45625 42.6062 9.33333 42.3094 9.33333 42V14ZM39.6667 32.7483C40.4405 32.6376 41.2262 32.6376 42 32.7483V14C42 13.0717 41.6312 12.1815 40.9749 11.5251C40.3185 10.8687 39.4283 10.5 38.5 10.5H35V12.8333H38.5C38.8094 12.8333 39.1062 12.9562 39.325 13.175C39.5438 13.3938 39.6667 13.6906 39.6667 14V32.7483ZM18.6667 12.8333H30.9902V10.5H18.6667V12.8333Z" fill="#F8F8F8"/>
<path fill-rule="evenodd" clip-rule="evenodd" d="M42.0002 21H9.3335V18.6667H42.0002V21Z" fill="#F8F8F8"/>
<path d="M14 8.16667C14 7.85725 14.1229 7.5605 14.3417 7.34171C14.5605 7.12292 14.8572 7 15.1667 7C15.4761 7 15.7728 7.12292 15.9916 7.34171C16.2104 7.5605 16.3333 7.85725 16.3333 8.16667V14C16.3333 14.3094 16.2104 14.6062 15.9916 14.825C15.7728 15.0438 15.4761 15.1667 15.1667 15.1667C14.8572 15.1667 14.5605 15.0438 14.3417 14.825C14.1229 14.6062 14 14.3094 14 14V8.16667Z" fill="#F8F8F8"/>
<path d="M30.3335 8.16667C30.3335 7.85725 30.4564 7.5605 30.6752 7.34171C30.894 7.12292 31.1907 7 31.5002 7C31.8096 7 32.1063 7.12292 32.3251 7.34171C32.5439 7.5605 32.6668 7.85725 32.6668 8.16667V14C32.6668 14.3094 32.5439 14.6062 32.3251 14.825C32.1063 15.0438 31.8096 15.1667 31.5002 15.1667C31.1907 15.1667 30.894 15.0438 30.6752 14.825C30.4564 14.6062 30.3335 14.3094 30.3335 14V8.16667Z" fill="#F8F8F8"/>
</svg>
