<?xml version="1.0" encoding="UTF-8"?>
<svg xmlns="http://www.w3.org/2000/svg" xmlns:xlink="http://www.w3.org/1999/xlink" viewBox="0 0 64 64" width="64px" height="64px">
<g id="surface4563663">
<path style=" stroke:none;fill-rule:nonzero;fill:rgb(100%,100%,100%);fill-opacity:1;" d="M 32 10 C 23.765625 10 17.28125 16.257812 16.375 24.25 C 12.789062 24.851562 9.882812 27.289062 8.6875 30.6875 C 3.765625 32.109375 0 36.5 0 42 C 0 48.648438 5.351562 54 12 54 L 52 54 C 58.648438 54 64 48.648438 64 42 C 64 38.476562 62.289062 35.328125 59.8125 33.125 C 59.351562 26.09375 53.742188 20.492188 46.6875 20.125 C 44.28125 14.265625 38.757812 10 32 10 Z M 32 14 C 37.523438 14 41.945312 17.539062 43.5 22.5625 L 43.9375 24 L 46 24 C 51.507812 24 56 28.492188 56 34 L 56 35 L 56.8125 35.625 C 58.703125 37.039062 60 39.46875 60 42 C 60 46.554688 56.554688 50 52 50 L 12 50 C 7.445312 50 4 46.554688 4 42 C 4 37.960938 6.898438 34.828125 10.5625 34.1875 L 11.875 33.9375 L 12.125 32.625 C 12.726562 29.929688 15.109375 28 18 28 L 20 28 L 20 26 C 20 19.257812 25.257812 14 32 14 Z M 30 24 L 30 37.125 L 25.4375 32.5625 L 22.5625 35.4375 L 30.5625 43.4375 L 32 44.8125 L 33.4375 43.4375 L 41.4375 35.4375 L 38.5625 32.5625 L 34 37.125 L 34 24 Z M 30 24 "/>
</g>
</svg>
