<svg width="31" height="25" viewBox="0 0 31 25" fill="none" xmlns="http://www.w3.org/2000/svg">
<g clip-path="url(#clip0_6:2410)">
<path d="M3.57693 4.80769H25.0385C27.0654 4.80769 28.6154 6.05769 28.6154 7.69231V8.65385H29.8077C30.5231 8.65385 31 9.03846 31 9.61539V15.3846C31 15.9615 30.5231 16.3462 29.8077 16.3462H28.6154V17.3077C28.6154 18.9423 27.0654 20.1923 25.0385 20.1923H3.57693C1.55 20.1923 2.6226e-06 18.9423 2.6226e-06 17.3077V7.69231C2.6226e-06 6.05769 1.55 4.80769 3.57693 4.80769ZM4.76923 13.4615L13.1154 12.5V16.3462L22.6538 11.5385L14.3077 12.5V8.65385L4.76923 13.4615Z" fill="#F8F8F8"/>
</g>
<defs>
<clipPath id="clip0_6:2410">
<rect width="31" height="25" fill="white"/>
</clipPath>
</defs>
</svg>
