<svg width="46" height="32" viewBox="0 0 46 32" fill="none" xmlns="http://www.w3.org/2000/svg">
<path d="M5 0.25H41C42.1935 0.25 43.3381 0.724106 44.182 1.56802C45.0259 2.41193 45.5 3.55653 45.5 4.75V27.25C45.5 28.4435 45.0259 29.5881 44.182 30.432C43.3381 31.2759 42.1935 31.75 41 31.75H5C3.80653 31.75 2.66193 31.2759 1.81802 30.432C0.974106 29.5881 0.5 28.4435 0.5 27.25V4.75C0.5 3.55653 0.974106 2.41193 1.81802 1.56802C2.66193 0.724106 3.80653 0.25 5 0.25ZM5 4.75V27.25H41V4.75H5ZM25.25 9.25H36.5C37.0967 9.25 37.669 9.48705 38.091 9.90901C38.513 10.331 38.75 10.9033 38.75 11.5C38.75 12.0967 38.513 12.669 38.091 13.091C37.669 13.5129 37.0967 13.75 36.5 13.75H25.25C24.6533 13.75 24.081 13.5129 23.659 13.091C23.2371 12.669 23 12.0967 23 11.5C23 10.9033 23.2371 10.331 23.659 9.90901C24.081 9.48705 24.6533 9.25 25.25 9.25ZM25.25 16H36.5C37.0967 16 37.669 16.2371 38.091 16.659C38.513 17.081 38.75 17.6533 38.75 18.25C38.75 18.8467 38.513 19.419 38.091 19.841C37.669 20.2629 37.0967 20.5 36.5 20.5H25.25C24.6533 20.5 24.081 20.2629 23.659 19.841C23.2371 19.419 23 18.8467 23 18.25C23 17.6533 23.2371 17.081 23.659 16.659C24.081 16.2371 24.6533 16 25.25 16ZM9.5 9.25H16.25C16.8467 9.25 17.419 9.48705 17.841 9.90901C18.2629 10.331 18.5 10.9033 18.5 11.5V18.25C18.5 18.8467 18.2629 19.419 17.841 19.841C17.419 20.2629 16.8467 20.5 16.25 20.5H9.5C8.90326 20.5 8.33097 20.2629 7.90901 19.841C7.48705 19.419 7.25 18.8467 7.25 18.25V11.5C7.25 10.9033 7.48705 10.331 7.90901 9.90901C8.33097 9.48705 8.90326 9.25 9.5 9.25Z" fill="#F8F8F8"/>
</svg>
