<svg width="33" height="39" viewBox="0 0 33 39" fill="none" xmlns="http://www.w3.org/2000/svg">
<path d="M21.8444 23.85C21.6059 23.772 20.0984 23.0925 21.0404 20.229H21.0269C23.4824 17.7 25.3589 13.6305 25.3589 9.62401C25.3589 3.46351 21.2624 0.234009 16.5014 0.234009C11.7374 0.234009 7.66342 3.46201 7.66342 9.62401C7.66342 13.647 9.52942 17.733 11.9999 20.256C12.9629 22.782 11.2409 23.7195 10.8809 23.8515C5.89492 25.6545 0.0449219 28.941 0.0449219 32.1855V33.402C0.0449219 37.8225 8.61592 38.8275 16.5479 38.8275C24.4919 38.8275 32.9549 37.8225 32.9549 33.402V32.1855C32.9549 28.8435 27.0764 25.5825 21.8444 23.85Z" fill="#F8F8F8"/>
</svg>
