<svg width="42" height="42" viewBox="0 0 42 42" fill="none" xmlns="http://www.w3.org/2000/svg">
<path d="M21 35.1094C16.7057 35.1094 11.8625 34.157 8.0448 32.5664C6.64453 31.9766 5.44523 31.0226 4.46496 30.2695C4.41633 30.2323 4.35827 30.2095 4.29734 30.2036C4.23641 30.1976 4.17504 30.2089 4.12017 30.236C4.06529 30.2632 4.0191 30.3051 3.98682 30.3571C3.95454 30.4091 3.93746 30.4692 3.9375 30.5304V31.5623C3.9375 33.8649 5.86441 35.928 9.36305 37.3718C12.4925 38.6638 16.6253 39.375 21 39.375C25.3747 39.375 29.5066 38.6638 32.637 37.3718C36.1356 35.9297 38.0625 33.8649 38.0625 31.5623V30.5304C38.0625 30.4692 38.0455 30.4091 38.0132 30.3571C37.9809 30.3051 37.9347 30.2632 37.8798 30.236C37.825 30.2089 37.7636 30.1976 37.7027 30.2036C37.6417 30.2095 37.5837 30.2323 37.535 30.2695C36.5548 31.0217 35.3555 31.9766 33.9544 32.5664C30.1366 34.157 25.2943 35.1094 21 35.1094Z" fill="#F8F8F8"/>
<path d="M38.0625 10.3778C37.9961 8.10961 36.079 6.07934 32.6484 4.64789C29.5099 3.34359 25.3755 2.625 21 2.625C16.6245 2.625 12.4901 3.34359 9.35894 4.64789C5.93168 6.07605 4.01461 8.10223 3.94488 10.3646L3.9375 11.8125C3.9375 12.3383 4.36406 13.1644 5.13762 13.8411C6.05063 14.6393 7.40578 15.4268 9.05707 16.1159C12.5705 17.5842 17.0354 18.457 21 18.457C24.9646 18.457 29.4295 17.5809 32.9429 16.1126C34.5942 15.4235 35.9494 14.636 36.8624 13.8379C37.6359 13.1652 38.0625 12.3391 38.0625 11.8125V10.3778Z" fill="#F8F8F8"/>
<path d="M33.9544 18.5391C30.1375 20.1329 25.2944 21.082 21 21.082C16.7057 21.082 11.8626 20.1329 8.04482 18.5391C6.64455 17.9525 5.44525 16.9977 4.46498 16.2422C4.41613 16.2048 4.35777 16.1819 4.29654 16.1761C4.23531 16.1703 4.17369 16.1819 4.1187 16.2094C4.06371 16.237 4.01757 16.2794 3.98553 16.3319C3.9535 16.3844 3.93686 16.4448 3.93752 16.5063V19.0312C3.93752 19.5571 4.36408 20.2191 5.13764 20.8958C6.05064 21.6948 7.4058 22.4815 9.05709 23.1714C12.5705 24.6373 17.0354 25.5117 21 25.5117C24.9646 25.5117 29.4296 24.6356 32.943 23.1681C34.5942 22.4782 35.9494 21.6915 36.8624 20.8925C37.636 20.2182 38.0625 19.5571 38.0625 19.0312V16.5063C38.0626 16.4451 38.0455 16.3851 38.0132 16.3331C37.9809 16.2811 37.9347 16.2391 37.8799 16.212C37.825 16.1848 37.7636 16.1736 37.7027 16.1795C37.6418 16.1854 37.5837 16.2083 37.5351 16.2455C36.5548 16.9977 35.3555 17.9525 33.9544 18.5391Z" fill="#F8F8F8"/>
<path d="M33.9544 25.5937C30.1366 27.186 25.2943 28.1367 21 28.1367C16.7057 28.1367 11.8625 27.186 8.04481 25.5937C6.64454 25.0056 5.44524 24.0507 4.46497 23.2969C4.41623 23.2596 4.35802 23.2367 4.29694 23.2309C4.23586 23.225 4.17436 23.2364 4.11943 23.2637C4.0645 23.2911 4.01833 23.3333 3.98618 23.3855C3.95402 23.4378 3.93716 23.498 3.93751 23.5594V26.0039C3.93751 26.5297 4.36407 27.1909 5.1368 27.8668C6.04981 28.6658 7.40579 29.4525 9.05708 30.1424C12.5705 31.6083 17.0346 32.4844 21 32.4844C24.9654 32.4844 29.4295 31.6083 32.9429 30.1407C34.5942 29.4508 35.9494 28.6642 36.8624 27.8652C37.6359 27.1884 38.0625 26.5264 38.0625 26.0039V23.5594C38.0625 23.4981 38.0455 23.4381 38.0132 23.3861C37.9809 23.3341 37.9347 23.2922 37.8798 23.265C37.825 23.2379 37.7636 23.2266 37.7027 23.2326C37.6417 23.2385 37.5837 23.2613 37.535 23.2985C36.5548 24.0507 35.3555 25.0056 33.9544 25.5937Z" fill="#F8F8F8"/>
</svg>
